<svg width="23" height="20" viewBox="0 0 23 20" fill="none" xmlns="http://www.w3.org/2000/svg">
<path d="M21.9743 15.0296V8.80088L22.152 8.69738C22.5293 8.47838 22.7543 8.08763 22.7543 7.65188C22.7543 7.21613 22.5293 6.82463 22.152 6.60563L13.0343 1.30913C12.6562 1.0897 12.2268 0.974121 11.7896 0.974121C11.3525 0.974121 10.9231 1.0897 10.545 1.30913L1.42651 6.60638C1.05001 6.82538 0.825012 7.21613 0.825012 7.65188C0.825012 8.08763 1.05001 8.47838 1.42651 8.69813L4.19101 10.3046V14.0389C4.19165 14.4657 4.30435 14.8849 4.51783 15.2544C4.73132 15.624 5.03811 15.9311 5.40751 16.1449L9.21301 18.3386C10.0073 18.7961 10.8983 19.0256 11.7893 19.0256C12.6803 19.0256 13.5705 18.7969 14.3655 18.3386L18.1703 16.1449C18.5399 15.9313 18.8469 15.6243 19.0606 15.2547C19.2742 14.8851 19.3869 14.4658 19.3875 14.0389V10.3039L20.6243 9.58538V15.0296C20.4119 15.174 20.2514 15.3826 20.1663 15.6249C20.0812 15.8672 20.0761 16.1304 20.1516 16.3758C20.2271 16.6212 20.3793 16.836 20.5859 16.9886C20.7924 17.1411 21.0425 17.2234 21.2993 17.2234C21.5561 17.2234 21.8061 17.1411 22.0126 16.9886C22.2192 16.836 22.3714 16.6212 22.4469 16.3758C22.5224 16.1304 22.5173 15.8672 22.4322 15.6249C22.3471 15.3826 22.1866 15.174 21.9743 15.0296ZM18.0383 14.0381H18.0375C18.0375 14.4236 17.8313 14.7821 17.4968 14.9741L13.692 17.1679C13.1131 17.4999 12.4574 17.6746 11.79 17.6746C11.1226 17.6746 10.4669 17.4999 9.88801 17.1679L6.08251 14.9741C5.91824 14.8792 5.78182 14.7428 5.68691 14.5785C5.592 14.4142 5.54194 14.2279 5.54176 14.0381V11.0884L10.545 13.9954C10.9232 14.2148 11.3527 14.3304 11.79 14.3304C12.2273 14.3304 12.6568 14.2148 13.035 13.9954L18.0383 11.0884V14.0381ZM12.3563 12.8284C12.1841 12.9282 11.9886 12.9808 11.7896 12.9808C11.5906 12.9808 11.3952 12.9282 11.223 12.8284L2.31376 7.65188L11.2223 2.47538C11.3944 2.37555 11.5899 2.32297 11.7889 2.32297C11.9879 2.32297 12.1834 2.37555 12.3555 2.47538L21.2648 7.65113L12.3563 12.8284Z" fill="#F8AC50"/>
</svg>
