<svg width="21" height="22" viewBox="0 0 21 22" fill="none" xmlns="http://www.w3.org/2000/svg">
<path d="M10.8918 20.1105C10.8818 20.0081 10.8444 19.9102 10.7835 19.8272C10.7227 19.7442 10.6406 19.6791 10.5459 19.6387C10.4904 19.6121 10.4311 19.5944 10.3701 19.5862C9.1363 19.474 7.84218 17.5603 7.23908 14.5961H8.66249C8.81913 14.5961 8.96936 14.5338 9.08012 14.4231C9.19089 14.3123 9.25311 14.1621 9.25311 14.0054C9.25311 13.8488 9.19089 13.6986 9.08012 13.5878C8.96936 13.477 8.81913 13.4148 8.66249 13.4148H7.04418C6.83896 11.8117 6.83963 10.189 7.04614 8.58612H13.9584C14.0267 9.11046 14.0739 9.65252 14.0969 10.2097C14.1107 10.5358 14.4178 10.7852 14.7111 10.776C14.7887 10.7729 14.8648 10.7545 14.9352 10.722C15.0057 10.6894 15.069 10.6433 15.1216 10.5862C15.1742 10.5292 15.215 10.4623 15.2418 10.3895C15.2685 10.3167 15.2807 10.2393 15.2775 10.1618C15.2548 9.63512 15.2121 9.10952 15.1495 8.58612H18.7464C18.9702 9.35262 19.0969 10.1611 19.0969 10.9998C19.0969 11.3607 19.0772 11.6902 19.0365 12.0078C19.0166 12.1631 19.0592 12.32 19.1549 12.4439C19.2507 12.5679 19.3917 12.6487 19.5471 12.6686C19.7021 12.6868 19.858 12.6435 19.9816 12.5481C20.1051 12.4527 20.1863 12.3127 20.2079 12.1581C20.2551 11.7899 20.2781 11.4113 20.2781 10.9998C20.2781 5.60805 15.8911 1.22168 10.5 1.22168C5.10889 1.22168 0.721863 5.60805 0.721863 10.9998C0.721863 16.2905 5.02161 20.6736 10.3057 20.7714L10.3169 20.772C10.4197 20.7709 10.5204 20.7426 10.6088 20.69C10.6972 20.6375 10.7701 20.5625 10.8202 20.4728C10.885 20.3638 10.9103 20.2359 10.8918 20.1105ZM5.85439 13.4148H2.25749C2.02356 12.6311 1.9042 11.8177 1.90311 10.9998C1.90311 10.1611 2.02911 9.35262 2.25421 8.58612H5.85571C5.75863 9.38703 5.70954 10.193 5.70871 10.9998C5.70871 11.8378 5.76252 12.6437 5.85439 13.4148ZM7.24039 7.40421C7.86646 4.34215 9.23539 2.40293 10.5 2.40293C11.8926 2.40293 13.167 4.48324 13.7602 7.40421H7.24039ZM18.2982 7.40421H14.9756C14.6239 5.50043 13.9971 3.92674 13.1919 2.84065C14.3094 3.21271 15.3389 3.80952 16.217 4.59435C17.0952 5.37917 17.8034 6.33541 18.2982 7.40421ZM7.83496 2.83146C7.02252 3.92477 6.39318 5.51487 6.03683 7.40487H2.70177C3.19834 6.3315 3.91023 5.37165 4.79327 4.58492C5.6763 3.79818 6.71162 3.20135 7.83496 2.83146ZM2.71161 14.5961H6.03092C6.38399 16.4887 7.01268 18.0722 7.82577 19.1642C5.56039 18.4161 3.71108 16.7367 2.71161 14.5961Z" fill="#F8AC50"/>
<path d="M19.8712 14.5796L16.0092 12.3359C15.8025 12.2163 15.5678 12.1533 15.329 12.1533C15.0902 12.1533 14.8555 12.2163 14.6488 12.3359L10.7848 14.5809C10.6617 14.6533 10.5597 14.7567 10.4888 14.8806C10.4179 15.0046 10.3806 15.1449 10.3806 15.2877C10.3812 15.5764 10.5367 15.8475 10.7868 15.9925L11.8059 16.5844V18.3596C11.8059 18.836 12.0625 19.2784 12.4746 19.5153L14.0864 20.4445C14.4645 20.6625 14.8932 20.7772 15.3297 20.7772C15.7661 20.7772 16.1948 20.6625 16.5729 20.4445L18.184 19.5159C18.3873 19.3989 18.5561 19.2304 18.6736 19.0274C18.7911 18.8245 18.8531 18.5941 18.8534 18.3596V16.5844L19.8719 15.9932C20.1226 15.8475 20.2788 15.5771 20.2794 15.2877C20.2788 15.1444 20.2409 15.0037 20.1693 14.8795C20.0977 14.7553 19.995 14.652 19.8712 14.5796ZM15.2427 13.3577C15.2692 13.3425 15.2992 13.3346 15.3297 13.3346C15.3602 13.3346 15.3901 13.3425 15.4166 13.3577L18.7366 15.2857L15.4166 17.2144C15.3901 17.2296 15.3602 17.2375 15.3297 17.2375C15.2992 17.2375 15.2692 17.2296 15.2427 17.2144L11.9227 15.2857L15.2427 13.3577ZM17.6708 18.3603C17.6708 18.4147 17.642 18.4653 17.5947 18.4928L15.983 19.4221C15.7841 19.536 15.5589 19.596 15.3297 19.596C15.1005 19.596 14.8752 19.536 14.6764 19.4221L13.064 18.4922C13.0409 18.4787 13.0218 18.4595 13.0086 18.4363C12.9953 18.4132 12.9884 18.3869 12.9885 18.3603V17.2715L14.6495 18.2369C14.8561 18.3567 15.0908 18.4198 15.3297 18.4198C15.5685 18.4198 15.8032 18.3567 16.0099 18.2369L17.6708 17.2722V18.3603Z" fill="#F8AC50"/>
</svg>
