<svg width="20" height="20" viewBox="0 0 20 20" fill="none" xmlns="http://www.w3.org/2000/svg">
<g clip-path="url(#clip0_300_1387)">
<path d="M5.13623 5.39746C4.98704 5.39746 4.84397 5.45672 4.73848 5.56221C4.63299 5.6677 4.57373 5.81078 4.57373 5.95996C4.57373 6.10915 4.63299 6.25222 4.73848 6.35771C4.84397 6.4632 4.98704 6.52246 5.13623 6.52246H14.1769C14.326 6.52246 14.4691 6.4632 14.5746 6.35771C14.6801 6.25222 14.7394 6.10915 14.7394 5.95996C14.7394 5.81078 14.6801 5.6677 14.5746 5.56221C14.4691 5.45672 14.326 5.39746 14.1769 5.39746H5.13623ZM12.6156 9.43746H5.13373C4.98454 9.43746 4.84147 9.49672 4.73598 9.60221C4.63049 9.7077 4.57123 9.85078 4.57123 9.99996C4.57123 10.1491 4.63049 10.2922 4.73598 10.3977C4.84147 10.5032 4.98454 10.5625 5.13373 10.5625H12.615C12.7642 10.5625 12.9073 10.5034 13.0128 10.3979C13.1184 10.2925 13.1777 10.1495 13.1778 10.0003C13.1779 9.85109 13.1187 9.70798 13.0133 9.60243C12.9078 9.49689 12.7648 9.43754 12.6156 9.43746ZM11.1775 14.6C11.3267 14.6 11.4697 14.5407 11.5752 14.4352C11.6807 14.3297 11.74 14.1866 11.74 14.0375C11.74 13.8883 11.6807 13.7452 11.5752 13.6397C11.4697 13.5342 11.3267 13.475 11.1775 13.475H5.13373C4.98454 13.475 4.84147 13.5342 4.73598 13.6397C4.63049 13.7452 4.57123 13.8883 4.57123 14.0375C4.57123 14.1866 4.63049 14.3297 4.73598 14.4352C4.84147 14.5407 4.98454 14.6 5.13373 14.6H11.1775Z" fill="#F8AC50"/>
<path d="M12.0281 18.1875H3.94623C3.45744 18.1868 2.98886 17.9924 2.64323 17.6467C2.2976 17.3011 2.10314 16.8325 2.10248 16.3438V3.65625C2.10314 3.16746 2.2976 2.69888 2.64323 2.35325C2.98886 2.00763 3.45744 1.81316 3.94623 1.8125H15.365C15.8538 1.81316 16.3223 2.00763 16.668 2.35325C17.0136 2.69888 17.2081 3.16746 17.2087 3.65625V8.90625C17.2087 9.05543 17.268 9.19851 17.3735 9.304C17.479 9.40949 17.622 9.46875 17.7712 9.46875C17.9204 9.46875 18.0635 9.40949 18.169 9.304C18.2745 9.19851 18.3337 9.05543 18.3337 8.90625V3.65625C18.3327 2.86919 18.0196 2.11466 17.4631 1.55812C16.9066 1.00159 16.152 0.688492 15.365 0.6875H3.94623C3.15917 0.688492 2.40463 1.00159 1.8481 1.55812C1.29157 2.11466 0.97847 2.86919 0.977478 3.65625V16.3438C0.97847 17.1308 1.29157 17.8853 1.8481 18.4419C2.40463 18.9984 3.15917 19.3115 3.94623 19.3125H12.0275C12.1767 19.3126 12.3198 19.2534 12.4253 19.148C12.5309 19.0425 12.5902 18.8995 12.5903 18.7503C12.5904 18.6011 12.5312 18.458 12.4258 18.3525C12.3203 18.2469 12.1773 18.1876 12.0281 18.1875Z" fill="#F8AC50"/>
<path d="M19.0225 13.5017C19.0225 11.8636 17.69 10.5317 16.0525 10.5317C14.415 10.5317 13.0825 11.8642 13.0825 13.5017C13.0825 14.3267 13.4218 15.073 13.9668 15.6117V18.7499C13.9668 18.8514 13.9942 18.951 14.0461 19.0382C14.0981 19.1254 14.1727 19.197 14.262 19.2452C14.3513 19.2935 14.452 19.3166 14.5534 19.3123C14.6549 19.3079 14.7532 19.2762 14.8381 19.2205L16.0531 18.423L17.2687 19.2205C17.3535 19.276 17.4517 19.3076 17.553 19.3119C17.6543 19.3162 17.7548 19.293 17.844 19.2449C17.9332 19.1967 18.0078 19.1254 18.0598 19.0383C18.1117 18.9513 18.1392 18.8519 18.1393 18.7505V15.6117C18.4189 15.336 18.6409 15.0075 18.7925 14.6453C18.9441 14.2831 19.0223 13.8944 19.0225 13.5017ZM16.0518 11.6561C17.0693 11.6561 17.8975 12.4842 17.8975 13.5017C17.8975 14.5192 17.0693 15.3467 16.0518 15.3467C15.0343 15.3467 14.2062 14.5192 14.2062 13.5017C14.2062 12.4842 15.0343 11.6561 16.0518 11.6561ZM17.0137 17.708L16.3606 17.2799C16.2689 17.2198 16.1617 17.1878 16.0521 17.1878C15.9426 17.1878 15.8354 17.2198 15.7437 17.2799L15.0912 17.708V16.298C15.3943 16.4024 15.7143 16.4717 16.0525 16.4717C16.3906 16.4717 16.7106 16.403 17.0143 16.298L17.0137 17.708Z" fill="#F8AC50"/>
</g>
<defs>
<clipPath id="clip0_300_1387">
<rect width="20" height="20" fill="white"/>
</clipPath>
</defs>
</svg>
