<svg width="35" height="35" viewBox="0 0 35 35" fill="none" xmlns="http://www.w3.org/2000/svg">
<circle cx="17.9826" cy="17.9822" r="17.0174" fill="#F8AC50"/>
<g clip-path="url(#clip0_300_3802)">
<path d="M24.1489 13.6699H21.4823L21.119 12.798C20.8336 12.1133 20.1689 11.6699 19.427 11.6699H16.473C15.7743 11.6699 15.1462 12.0586 14.8336 12.6832L14.3403 13.6699H11.8157C10.8043 13.6699 9.9823 14.4919 9.9823 15.5033V22.5033C9.9823 23.5147 10.8043 24.3366 11.8157 24.3366H23.9823C24.9283 24.3366 25.9823 23.5839 25.9823 22.5033V15.5033C25.9823 14.4919 25.1603 13.6699 24.1489 13.6699Z" fill="#F8AC50"/>
<path d="M21.6489 18.6696C21.6489 20.6946 20.0073 22.3362 17.9823 22.3362C15.9573 22.3362 14.3157 20.6946 14.3157 18.6696C14.3157 16.6445 15.9573 15.0029 17.9823 15.0029C20.0073 15.0029 21.6489 16.6445 21.6489 18.6696Z" fill="#F8AC50"/>
<path d="M17.9823 22.3362C15.9603 22.3362 14.3157 20.6915 14.3157 18.6696C14.3157 16.6476 15.9603 15.0029 17.9823 15.0029C20.0043 15.0029 21.6489 16.6476 21.6489 18.6696C21.6489 20.6915 20.0043 22.3362 17.9823 22.3362ZM17.9823 16.0029C16.5116 16.0029 15.3157 17.1989 15.3157 18.6696C15.3157 20.1403 16.5116 21.3362 17.9823 21.3362C19.453 21.3362 20.6489 20.1403 20.6489 18.6696C20.6489 17.1989 19.453 16.0029 17.9823 16.0029Z" fill="#0D0D0D"/>
<path d="M23.9823 24.3366H11.8157C10.8043 24.3366 9.9823 23.5147 9.9823 22.5033V15.5033C9.9823 14.4919 10.8043 13.6699 11.8157 13.6699H14.3403L14.8336 12.6832C15.1462 12.0586 15.7743 11.6699 16.473 11.6699H19.427C20.1697 11.6699 20.8336 12.1133 21.1196 12.798L21.4823 13.6699H24.1489C25.1603 13.6699 25.9823 14.4919 25.9823 15.5033V22.5033C25.9823 23.5839 24.9283 24.3366 23.9823 24.3366ZM11.8157 14.6699C11.3563 14.6699 10.9823 15.0439 10.9823 15.5033V22.5033C10.9823 22.9626 11.3563 23.3366 11.8157 23.3366H23.9823C24.4869 23.3366 24.9823 22.924 24.9823 22.5033V15.5033C24.9823 15.0439 24.6083 14.6699 24.1489 14.6699H21.1489C20.947 14.6699 20.765 14.5486 20.6876 14.3625L20.1957 13.1832C20.0657 12.8712 19.7643 12.6699 19.4263 12.6699H16.473C16.1556 12.6699 15.8696 12.8466 15.7277 13.1306L15.0963 14.3933C15.0116 14.5626 14.8383 14.6699 14.6489 14.6699H11.8157Z" fill="#0D0D0D"/>
<path d="M23.3149 17.0043C22.9476 17.0043 22.6483 16.705 22.6483 16.3376C22.6483 15.9703 22.9476 15.6709 23.3149 15.6709C23.6823 15.6709 23.9817 15.9703 23.9817 16.3376C23.9817 16.705 23.6823 17.0043 23.3149 17.0043ZM23.3149 16.0043C23.131 16.0043 22.9817 16.1536 22.9817 16.3376C22.9817 16.5216 23.131 16.6709 23.3149 16.6709C23.499 16.6709 23.6483 16.5216 23.6483 16.3376C23.6483 16.1536 23.499 16.0043 23.3149 16.0043Z" fill="#0D0D0D"/>
</g>
<defs>
<clipPath id="clip0_300_3802">
<rect width="16" height="16" fill="white" transform="translate(9.9823 9.98242)"/>
</clipPath>
</defs>
</svg>
