<svg width="21" height="21" viewBox="0 0 21 21" fill="none" xmlns="http://www.w3.org/2000/svg">
<path d="M8.10938 15.97C7.65104 15.97 7.25882 15.807 6.93271 15.4809C6.60604 15.1542 6.44271 14.7617 6.44271 14.3034V4.30339C6.44271 3.84505 6.60604 3.45255 6.93271 3.12589C7.25882 2.79977 7.65104 2.63672 8.10938 2.63672H15.6094C16.0677 2.63672 16.4602 2.79977 16.7869 3.12589C17.113 3.45255 17.276 3.84505 17.276 4.30339V14.3034C17.276 14.7617 17.113 15.1542 16.7869 15.4809C16.4602 15.807 16.0677 15.97 15.6094 15.97H8.10938ZM8.10938 14.3034H15.6094V4.30339H8.10938V14.3034ZM4.77604 19.3034C4.31771 19.3034 3.92521 19.1403 3.59854 18.8142C3.27243 18.4875 3.10938 18.095 3.10938 17.6367V6.80338C3.10938 6.56727 3.18938 6.36922 3.34938 6.20922C3.50882 6.04977 3.7066 5.97005 3.94271 5.97005C4.17882 5.97005 4.37687 6.04977 4.53687 6.20922C4.69632 6.36922 4.77604 6.56727 4.77604 6.80338V17.6367H13.1094C13.3455 17.6367 13.5435 17.7167 13.7035 17.8767C13.863 18.0362 13.9427 18.2339 13.9427 18.47C13.9427 18.7062 13.863 18.9039 13.7035 19.0634C13.5435 19.2234 13.3455 19.3034 13.1094 19.3034H4.77604Z" fill="#F8AC50"/>
</svg>
