<svg width="24" height="24" viewBox="0 0 24 24" fill="none" xmlns="http://www.w3.org/2000/svg">
<g clip-path="url(#clip0_300_2805)">
<path d="M12.0002 0.825195C5.83819 0.825195 0.825195 5.83819 0.825195 12.0002C0.825195 18.1622 5.83819 23.1752 12.0002 23.1752C18.1622 23.1752 23.1752 18.1622 23.1752 12.0002C23.1752 5.83819 18.1622 0.825195 12.0002 0.825195ZM12.0002 21.8252C6.58294 21.8252 2.1752 17.4174 2.1752 12.0002C2.1752 6.58294 6.58294 2.1752 12.0002 2.1752C17.4174 2.1752 21.8252 6.58294 21.8252 12.0002C21.8252 17.4174 17.4174 21.8252 12.0002 21.8252Z" fill="#F8AC50"/>
<path d="M14.7032 11.3786L12.6752 13.6323V6.26582C12.6752 6.0868 12.6041 5.91511 12.4775 5.78852C12.3509 5.66194 12.1792 5.59082 12.0002 5.59082C11.8211 5.59082 11.6495 5.66194 11.5229 5.78852C11.3963 5.91511 11.3252 6.0868 11.3252 6.26582V13.6323L9.29642 11.3786C9.23731 11.312 9.16562 11.2578 9.08548 11.2191C9.00534 11.1803 8.91832 11.1578 8.82945 11.1528C8.74057 11.1479 8.65159 11.1605 8.56762 11.1901C8.48365 11.2196 8.40636 11.2655 8.34019 11.325C8.27402 11.3846 8.22028 11.4566 8.18207 11.537C8.14385 11.6174 8.12192 11.7045 8.11752 11.7935C8.11313 11.8824 8.12636 11.9713 8.15646 12.055C8.18657 12.1388 8.23294 12.2158 8.29292 12.2816L11.4977 15.8426C11.5612 15.9126 11.6386 15.9686 11.725 16.0069C11.8114 16.0452 11.9049 16.0649 11.9994 16.0649C12.0939 16.0649 12.1874 16.0452 12.2738 16.0069C12.3602 15.9686 12.4377 15.9126 12.5012 15.8426L15.7059 12.2816C15.7683 12.2163 15.817 12.1391 15.849 12.0547C15.881 11.9702 15.8958 11.8802 15.8924 11.7899C15.889 11.6997 15.8675 11.611 15.8292 11.5292C15.791 11.4474 15.7367 11.3741 15.6696 11.3137C15.6024 11.2533 15.5239 11.2069 15.4385 11.1774C15.3532 11.1478 15.2628 11.1358 15.1726 11.1418C15.0825 11.1479 14.9945 11.1719 14.9139 11.2126C14.8333 11.2533 14.7616 11.3097 14.7032 11.3786ZM14.4039 17.0598H9.59642C9.4174 17.0598 9.24571 17.1309 9.11912 17.2575C8.99253 17.3841 8.92142 17.5558 8.92142 17.7348C8.92142 17.9138 8.99253 18.0855 9.11912 18.2121C9.24571 18.3387 9.4174 18.4098 9.59642 18.4098H14.4039C14.5829 18.4098 14.7546 18.3387 14.8812 18.2121C15.0078 18.0855 15.0789 17.9138 15.0789 17.7348C15.0789 17.5558 15.0078 17.3841 14.8812 17.2575C14.7546 17.1309 14.5829 17.0598 14.4039 17.0598Z" fill="#F8AC50"/>
</g>
<defs>
<clipPath id="clip0_300_2805">
<rect width="24" height="24" fill="white" transform="translate(0.000244141)"/>
</clipPath>
</defs>
</svg>
