<svg width="20" height="16" viewBox="0 0 20 16" fill="none" xmlns="http://www.w3.org/2000/svg">
<path d="M15 0.523743H5C3.85661 0.524901 2.76038 0.979624 1.95188 1.78812C1.14338 2.59662 0.688658 3.69285 0.6875 4.83624V10.7869C0.6875 13.165 2.62188 15.0994 5 15.0994H15C17.3781 15.0994 19.3125 13.165 19.3125 10.7869V4.83624C19.3125 2.45812 17.3781 0.523743 15 0.523743ZM18.1875 10.7862C18.1875 12.5437 16.7575 13.9737 15 13.9737H5C4.15493 13.9728 3.34475 13.6366 2.74719 13.039C2.14964 12.4415 1.81349 11.6313 1.8125 10.7862V4.83562C1.8125 3.07812 3.2425 1.64812 5 1.64812H15C16.7575 1.64812 18.1875 3.07812 18.1875 4.83562V10.7862Z" fill="#F8AC50"/>
<path d="M15.725 4.4881L10.3675 6.6281C10.1318 6.72251 9.86879 6.72251 9.6331 6.6281L4.27497 4.4881C4.13789 4.43971 3.9874 4.44622 3.855 4.50625C3.72259 4.56628 3.61854 4.6752 3.5646 4.8102C3.51067 4.9452 3.51103 5.09582 3.56562 5.23056C3.6202 5.3653 3.72478 5.47371 3.85747 5.5331L9.2156 7.6731C9.71924 7.87501 10.2813 7.87501 10.785 7.6731L16.1425 5.5331C16.2752 5.47371 16.3797 5.3653 16.4343 5.23056C16.4889 5.09582 16.4893 4.9452 16.4353 4.8102C16.3814 4.6752 16.2774 4.56628 16.1449 4.50625C16.0125 4.44622 15.8621 4.43971 15.725 4.4881Z" fill="#F8AC50"/>
</svg>
