<svg width="32" height="32" viewBox="0 0 32 32" fill="none" xmlns="http://www.w3.org/2000/svg">
<path d="M27.3301 15.1601C27.3302 16.7853 27.0102 18.3946 26.3884 19.8961C25.7665 21.3977 24.855 22.762 23.7059 23.9112C22.5567 25.0605 21.1925 25.9721 19.691 26.594C18.1895 27.216 16.5803 27.5361 14.9551 27.5361C13.3299 27.5361 11.7206 27.216 10.2191 26.594C8.71767 25.9721 7.35342 25.0605 6.20428 23.9112C5.05514 22.762 4.14363 21.3977 3.52178 19.8961C2.89994 18.3946 2.57995 16.7853 2.58008 15.1601C2.58034 11.8783 3.88425 8.73088 6.20499 6.41033C8.52572 4.08979 11.6732 2.78613 14.9551 2.78613C18.237 2.78613 21.3844 4.08979 23.7052 6.41033C26.0259 8.73088 27.3298 11.8783 27.3301 15.1601Z" fill="#F8AC50"/>
<path fill-rule="evenodd" clip-rule="evenodd" d="M29.5997 5.71622C29.5485 5.71846 29.4979 5.72858 29.4497 5.74622L2.19975 15.9982C2.09853 16.0359 2.01223 16.1053 1.95373 16.196C1.89524 16.2868 1.8677 16.3941 1.87524 16.5018C1.88279 16.6095 1.925 16.7119 1.99557 16.7936C2.06614 16.8754 2.16128 16.932 2.26675 16.9552L9.92975 18.6302L11.3797 28.7872C11.3935 28.8831 11.4348 28.9728 11.4985 29.0457C11.5623 29.1185 11.6459 29.1713 11.7391 29.1975C11.8322 29.2238 11.9311 29.2224 12.0235 29.1936C12.1159 29.1648 12.198 29.1098 12.2597 29.0352L17.1007 23.2252L23.6417 26.6582C23.7075 26.6927 23.7801 26.7122 23.8543 26.7151C23.9285 26.718 24.0025 26.7044 24.0707 26.6752C24.139 26.646 24.1999 26.6019 24.2491 26.5462C24.2982 26.4905 24.3343 26.4246 24.3547 26.3532L30.1047 6.35322C30.1266 6.27674 30.13 6.19613 30.1145 6.1181C30.099 6.04008 30.0651 5.96687 30.0156 5.90458C29.9661 5.84229 29.9025 5.7927 29.83 5.75994C29.7575 5.72718 29.6792 5.71219 29.5997 5.71622ZM28.8697 7.03222L23.5647 25.4882L15.3577 21.1802C15.2994 21.1459 15.2347 21.1237 15.1676 21.1151C15.1005 21.1065 15.0323 21.1116 14.9672 21.1301C14.9021 21.1486 14.8414 21.1801 14.7888 21.2228C14.7363 21.2654 14.6929 21.3183 14.6614 21.3782C14.6299 21.4381 14.6109 21.5038 14.6055 21.5713C14.6001 21.6388 14.6085 21.7066 14.6301 21.7708C14.6518 21.8349 14.6862 21.894 14.7313 21.9444C14.7765 21.9949 14.8314 22.0356 14.8927 22.0642L16.1967 22.7482L12.2107 27.5332L10.8687 18.1442C10.8545 18.0436 10.81 17.9496 10.741 17.875C10.672 17.8003 10.5819 17.7484 10.4827 17.7262L4.13475 16.3382L28.8697 7.03222Z" fill="#0D0D0D"/>
<path fill-rule="evenodd" clip-rule="evenodd" d="M29.0467 6.59033L13.2967 20.3403C13.2167 20.4095 13.1607 20.5023 13.1367 20.6053L11.3867 28.3553L12.3627 28.5763L14.0757 20.9843L29.7027 7.34133L29.0467 6.59033Z" fill="#0D0D0D"/>
<path fill-rule="evenodd" clip-rule="evenodd" d="M29.1104 6.04028L10.1104 17.7903L10.6384 18.6403L29.6384 6.89028L29.1104 6.04028Z" fill="#0D0D0D"/>
</svg>
