<svg width="24" height="24" viewBox="0 0 24 24" fill="none" xmlns="http://www.w3.org/2000/svg">
<path d="M12 9.5C12.663 9.5 13.2989 9.76339 13.7678 10.2322C14.2366 10.7011 14.5 11.337 14.5 12C14.5 12.663 14.2366 13.2989 13.7678 13.7678C13.2989 14.2366 12.663 14.5 12 14.5C11.337 14.5 10.7011 14.2366 10.2322 13.7678C9.76339 13.2989 9.5 12.663 9.5 12C9.5 11.337 9.76339 10.7011 10.2322 10.2322C10.7011 9.76339 11.337 9.5 12 9.5ZM12 8C9.79 8 8 9.79 8 12C8 14.21 9.79 16 12 16C14.21 16 16 14.21 16 12C16 9.79 14.21 8 12 8Z" fill="#F8AC50"/>
<path d="M12 6.5C16.88 6.5 20.5 10.71 20.5 12C20.5 13.29 16.88 17.5 12 17.5C7.12 17.5 3.5 13.29 3.5 12C3.5 10.71 7.12 6.5 12 6.5ZM12 5C6.48 5 2 9.67 2 12C2 14.33 6.48 19 12 19C17.52 19 22 14.33 22 12C22 9.67 17.52 5 12 5Z" fill="#F8AC50"/>
</svg>
