<svg width="16" height="17" viewBox="0 0 16 17" fill="none" xmlns="http://www.w3.org/2000/svg">
<path d="M12.2225 7.50473C12.1031 7.50473 11.9887 7.55214 11.9043 7.63653C11.8199 7.72092 11.7725 7.83538 11.7725 7.95473V11.5692C11.7725 11.7244 11.7109 11.8732 11.6012 11.9829C11.4914 12.0926 11.3426 12.1542 11.1875 12.1542H4.05249V2.86973H7.88199C8.00134 2.86973 8.1158 2.82232 8.20019 2.73792C8.28458 2.65353 8.33199 2.53907 8.33199 2.41973C8.33199 2.30038 8.28458 2.18592 8.20019 2.10153C8.1158 2.01714 8.00134 1.96973 7.88199 1.96973H2.47749C1.98895 1.96973 1.52035 2.16349 1.17447 2.50852C0.828594 2.85355 0.633685 3.32168 0.632493 3.81023V13.9837C0.632493 13.9872 0.630493 13.9902 0.630493 13.9932C0.631155 14.4816 0.825503 14.9499 1.17091 15.2952C1.51632 15.6405 1.98458 15.8347 2.47299 15.8352H10.832C11.3201 15.8346 11.7881 15.6403 12.1332 15.2951C12.4783 14.9499 12.6725 14.4819 12.673 13.9937C12.6729 13.9346 12.6612 13.8761 12.6385 13.8216C12.6159 13.767 12.5827 13.7174 12.5408 13.6757C12.499 13.6339 12.4494 13.6008 12.3947 13.5783C12.3401 13.5557 12.2816 13.5442 12.2225 13.5442C12.1634 13.5443 12.1049 13.556 12.0503 13.5787C11.9958 13.6013 11.9462 13.6345 11.9044 13.6764C11.8627 13.7182 11.8296 13.7679 11.8071 13.8225C11.7845 13.8771 11.7729 13.9356 11.773 13.9947C11.773 14.5132 11.351 14.9347 10.8325 14.9347H2.47249C2.22421 14.9345 1.98607 14.8362 1.80986 14.6613C1.63364 14.4864 1.5336 14.249 1.53149 14.0007L1.53249 13.9947C1.53249 13.7482 1.63199 13.5062 1.80799 13.3302C1.98499 13.1502 2.21449 13.0552 2.47249 13.0552H11.1875C11.5813 13.0547 11.9588 12.898 12.2373 12.6195C12.5158 12.3411 12.6725 11.9635 12.673 11.5697V7.95473C12.673 7.89559 12.6613 7.83703 12.6387 7.7824C12.616 7.72777 12.5829 7.67814 12.541 7.63635C12.4992 7.59456 12.4495 7.56142 12.3949 7.53884C12.3402 7.51625 12.2816 7.50466 12.2225 7.50473ZM1.53249 12.4102V3.80973C1.53249 3.29123 1.95649 2.86973 2.47749 2.86973H3.15249V12.1547H2.47249C2.13499 12.1547 1.81199 12.2437 1.53249 12.4102Z" fill="#F8AC50"/>
<path d="M5.39746 5.47957C5.39746 5.59891 5.44487 5.71337 5.52926 5.79776C5.61365 5.88215 5.72811 5.92956 5.84746 5.92956H8.47746C8.59681 5.92956 8.71127 5.88215 8.79566 5.79776C8.88005 5.71337 8.92746 5.59891 8.92746 5.47957C8.92746 5.36022 8.88005 5.24576 8.79566 5.16137C8.71127 5.07698 8.59681 5.02957 8.47746 5.02957H5.84746C5.72811 5.02957 5.61365 5.07698 5.52926 5.16137C5.44487 5.24576 5.39746 5.36022 5.39746 5.47957ZM6.45946 7.21256C6.45946 7.33191 6.50687 7.44637 6.59126 7.53076C6.67565 7.61515 6.79011 7.66257 6.90946 7.66257H8.91246C9.03181 7.66257 9.14627 7.61515 9.23066 7.53076C9.31505 7.44637 9.36246 7.33191 9.36246 7.21256C9.36246 7.09322 9.31505 6.97876 9.23066 6.89437C9.14627 6.80998 9.03181 6.76257 8.91246 6.76257H6.90946C6.79011 6.76257 6.67565 6.80998 6.59126 6.89437C6.50687 6.97876 6.45946 7.09322 6.45946 7.21256ZM15.351 3.00656C15.2425 2.14706 14.7395 1.49256 14.007 1.25506C13.4065 1.06056 12.7535 1.18306 12.2225 1.57256C11.691 1.18356 11.039 1.06256 10.438 1.25506C9.70496 1.49256 9.20196 2.14706 9.09396 3.00706C8.86546 4.81606 10.808 6.13857 12.086 6.54657C12.1748 6.57451 12.2701 6.57451 12.359 6.54657C13.637 6.13857 15.58 4.81756 15.351 3.00656ZM12.222 5.64207C11.19 5.26456 9.84296 4.25656 9.98596 3.11956C10.051 2.60756 10.3165 2.24006 10.7145 2.11106C10.811 2.07956 10.9115 2.06457 11.012 2.06457C11.324 2.06457 11.6435 2.21056 11.8935 2.47856C12.0645 2.66106 12.381 2.66106 12.5515 2.47856C12.882 2.12406 13.3335 1.98256 13.73 2.11106C14.128 2.24006 14.3935 2.60706 14.4585 3.11956C14.602 4.25757 13.255 5.26556 12.222 5.64207Z" fill="#F8AC50"/>
</svg>
