<svg width="32" height="32" viewBox="0 0 32 32" fill="none" xmlns="http://www.w3.org/2000/svg">
<path d="M0 5.33337H32V26.6669H0V5.33337Z" fill="#F0F0F0"/>
<path d="M18 5.33313H14V13.9998H0V17.9998H14V26.6664H18V17.9998H32V13.9998H18V5.33313Z" fill="#D80027"/>
<path d="M24.6116 19.7098L32 23.8146V19.7098H24.6116ZM19.4782 19.7098L32 26.6663V24.6992L23.0192 19.7098H19.4782ZM28.6646 26.6663L19.4782 21.5623V26.6663H28.6646Z" fill="#0052B4"/>
<path d="M19.4782 19.7098L32 26.6663V24.6992L23.0192 19.7098H19.4782Z" fill="#F0F0F0"/>
<path d="M19.4782 19.7098L32 26.6663V24.6992L23.0192 19.7098H19.4782Z" fill="#D80027"/>
<path d="M5.64631 19.7097L0 22.8466V19.7097H5.64631ZM12.5218 20.5943V26.6663H1.59319L12.5218 20.5943Z" fill="#0052B4"/>
<path d="M8.98081 19.7098L0 24.6992V26.6663L12.5218 19.7098H8.98081Z" fill="#D80027"/>
<path d="M7.38844 12.2896L0 8.18488V12.2896H7.38844ZM12.5218 12.2896L0 5.33313V7.30025L8.98081 12.2896H12.5218ZM3.33538 5.33313L12.5218 10.4371V5.33313H3.33538Z" fill="#0052B4"/>
<path d="M12.5218 12.2896L0 5.33313V7.30025L8.98081 12.2896H12.5218Z" fill="#F0F0F0"/>
<path d="M12.5218 12.2896L0 5.33313V7.30025L8.98081 12.2896H12.5218Z" fill="#D80027"/>
<path d="M26.3537 12.2898L32 9.15294V12.2898H26.3537ZM19.4782 11.4052V5.33325H30.4068L19.4782 11.4052Z" fill="#0052B4"/>
<path d="M23.0192 12.2896L32 7.30025V5.33313L19.4782 12.2896H23.0192Z" fill="#D80027"/>
</svg>
