<svg width="24" height="22" viewBox="0 0 24 22" fill="none" xmlns="http://www.w3.org/2000/svg">
<path d="M12 3.74679L11.5948 3.1866C11.1705 2.5999 10.6925 2.1017 10.1694 1.69726L10.1694 1.69723C9.13838 0.899844 7.97679 0.5 6.70439 0.5C4.9889 0.5 3.41789 1.185 2.27138 2.42847L12 3.74679ZM12 3.74679L12.4051 3.18662M12 3.74679L12.4051 3.18662M12.4051 3.18662C12.8296 2.59978 13.3075 2.10171 13.8304 1.69726L12.4051 3.18662ZM21.7285 2.4285C20.5819 1.185 19.0111 0.5 17.2956 0.5C16.0232 0.5 14.8617 0.899824 13.8304 1.69721L21.7285 2.4285ZM21.7285 2.4285C22.8632 3.65936 23.5 5.35416 23.5 7.21252C23.5 9.09883 22.8038 10.8478 21.2349 12.7407L21.2348 12.7408C19.8158 14.4532 17.7661 16.2019 15.3372 18.2717L15.3372 18.2717L15.3088 18.2959C14.49 18.9939 13.5616 19.7852 12.5983 20.6277L12.598 20.6279C12.433 20.7724 12.2206 20.8523 12 20.8523H11.9998C11.7798 20.8524 11.5672 20.7725 11.4016 20.6275L11.4013 20.6272C10.4287 19.7768 9.49217 18.9787 8.66787 18.2761L8.66329 18.2722L8.66327 18.2722M21.7285 2.4285L8.66327 18.2722M8.66327 18.2722C6.23408 16.2021 4.18439 14.4532 2.76534 12.7409C1.19635 10.8477 0.5 9.09875 0.5 7.2127C0.5 5.35417 1.13681 3.65938 2.27133 2.42852L8.66327 18.2722Z" fill="white" stroke="#F8AC50"/>
</svg>
