<svg width="32" height="32" viewBox="0 0 32 32" fill="none" xmlns="http://www.w3.org/2000/svg">
<path d="M29.875 18.873C29.875 22.1551 28.5712 25.3027 26.2504 27.6235C23.9297 29.9443 20.7821 31.248 17.5 31.248C15.8749 31.248 14.2657 30.928 12.7643 30.3061C11.2629 29.6842 9.89868 28.7726 8.74955 27.6235C6.42879 25.3027 5.125 22.1551 5.125 18.873C5.125 15.591 6.42879 12.4434 8.74955 10.1226C11.0703 7.80184 14.2179 6.49805 17.5 6.49805C20.7821 6.49805 23.9297 7.80184 26.2504 10.1226C28.5712 12.4434 29.875 15.591 29.875 18.873Z" fill="#F8AC50"/>
<path fill-rule="evenodd" clip-rule="evenodd" d="M29.8129 0.862913C29.9312 0.957811 30 1.10127 30 1.25293V26.2529C30 26.4873 29.8372 26.6902 29.6085 26.741L20.6085 28.741C20.537 28.7569 20.463 28.7569 20.3915 28.741L11.5 26.7651L2.60847 28.741C2.46042 28.7739 2.30544 28.7379 2.18714 28.643C2.06884 28.5481 2 28.4046 2 28.2529V3.25293C2 3.01858 2.16277 2.81568 2.39153 2.76484L11.3915 0.764841C11.463 0.748965 11.537 0.748965 11.6085 0.764841L20.5 2.74074L29.3915 0.764841C29.5396 0.731941 29.6946 0.768015 29.8129 0.862913ZM3 3.65402V27.6296L11.3915 25.7648C11.463 25.749 11.537 25.749 11.6085 25.7648L20.5 27.7407L29 25.8518V1.87624L20.6085 3.74103C20.537 3.7569 20.463 3.7569 20.3915 3.74103L11.5 1.76513L3 3.65402Z" fill="#0D0D0D"/>
<path fill-rule="evenodd" clip-rule="evenodd" d="M21 3.25293V13.2529H20V3.25293H21ZM21 16.2529V28.2459H20V16.2529H21Z" fill="#0D0D0D"/>
<path fill-rule="evenodd" clip-rule="evenodd" d="M5.65145 21.9043C5.84671 21.709 6.1633 21.709 6.35856 21.9043L7 22.5457L7.64145 21.9043C7.83671 21.709 8.1533 21.709 8.34856 21.9043C8.54382 22.0995 8.54382 22.4161 8.34856 22.6114L7.70711 23.2528L8.34856 23.8943C8.54382 24.0895 8.54382 24.4061 8.34856 24.6014C8.1533 24.7966 7.83671 24.7966 7.64145 24.6014L7 23.9599L6.35856 24.6014C6.1633 24.7966 5.84671 24.7966 5.65145 24.6014C5.45619 24.4061 5.45619 24.0895 5.65145 23.8943L6.2929 23.2528L5.65145 22.6114C5.45619 22.4161 5.45619 22.0995 5.65145 21.9043Z" fill="#0D0D0D"/>
<path fill-rule="evenodd" clip-rule="evenodd" d="M24.5 11.7529V8.75293H25.5V11.7529C25.5 12.6812 25.1313 13.5714 24.4749 14.2278C23.8185 14.8842 22.9283 15.2529 22 15.2529H10C9.33696 15.2529 8.70107 15.5163 8.23223 15.9852C7.76339 16.454 7.5 17.0899 7.5 17.7529V20.7529H6.5V17.7529C6.5 16.8247 6.86875 15.9344 7.52513 15.2781C8.1815 14.6217 9.07174 14.2529 10 14.2529H22C22.663 14.2529 23.2989 13.9895 23.7678 13.5207C24.2366 13.0519 24.5 12.416 24.5 11.7529Z" fill="#0D0D0D"/>
<path fill-rule="evenodd" clip-rule="evenodd" d="M16.5 2.25293V5.75293C16.5 7.21162 17.0795 8.61057 18.1109 9.64202C19.1424 10.6735 20.5413 11.2529 22 11.2529H29.5V12.2529H22C20.2761 12.2529 18.6228 11.5681 17.4038 10.3491C16.1848 9.13014 15.5 7.47684 15.5 5.75293V2.25293H16.5ZM10.25 18.2529H2.75V17.2529H10.25C11.9739 17.2529 13.6272 17.9377 14.8462 19.1567C16.0652 20.3757 16.75 22.029 16.75 23.7529V27.2529H15.75V23.7529C15.75 22.2942 15.1705 20.8953 14.1391 19.8638C13.1076 18.8324 11.7087 18.2529 10.25 18.2529Z" fill="#0D0D0D"/>
<path fill-rule="evenodd" clip-rule="evenodd" d="M11 13.253V1.26001H12V13.253H11ZM11 26.253V16.253H12V26.253H11Z" fill="#0D0D0D"/>
</svg>
