<svg width="22" height="22" viewBox="0 0 22 22" fill="none" xmlns="http://www.w3.org/2000/svg">
<path d="M11 3.4375C11.1823 3.4375 11.3572 3.36507 11.4861 3.23614C11.6151 3.1072 11.6875 2.93234 11.6875 2.75V2.0625C11.6875 1.88016 11.6151 1.7053 11.4861 1.57636C11.3572 1.44743 11.1823 1.375 11 1.375C10.8177 1.375 10.6428 1.44743 10.5139 1.57636C10.3849 1.7053 10.3125 1.88016 10.3125 2.0625V2.75C10.3125 2.93234 10.3849 3.1072 10.5139 3.23614C10.6428 3.36507 10.8177 3.4375 11 3.4375ZM11 18.5625C10.8177 18.5625 10.6428 18.6349 10.5139 18.7639C10.3849 18.8928 10.3125 19.0677 10.3125 19.25V19.9375C10.3125 20.1198 10.3849 20.2947 10.5139 20.4236C10.6428 20.5526 10.8177 20.625 11 20.625C11.1823 20.625 11.3572 20.5526 11.4861 20.4236C11.6151 20.2947 11.6875 20.1198 11.6875 19.9375V19.25C11.6875 19.0677 11.6151 18.8928 11.4861 18.7639C11.3572 18.6349 11.1823 18.5625 11 18.5625ZM19.9375 10.3125H19.25C19.0677 10.3125 18.8928 10.3849 18.7639 10.5139C18.6349 10.6428 18.5625 10.8177 18.5625 11C18.5625 11.1823 18.6349 11.3572 18.7639 11.4861C18.8928 11.6151 19.0677 11.6875 19.25 11.6875H19.9375C20.1198 11.6875 20.2947 11.6151 20.4236 11.4861C20.5526 11.3572 20.625 11.1823 20.625 11C20.625 10.8177 20.5526 10.6428 20.4236 10.5139C20.2947 10.3849 20.1198 10.3125 19.9375 10.3125ZM2.75 10.3125H2.0625C1.88016 10.3125 1.7053 10.3849 1.57636 10.5139C1.44743 10.6428 1.375 10.8177 1.375 11C1.375 11.1823 1.44743 11.3572 1.57636 11.4861C1.7053 11.6151 1.88016 11.6875 2.0625 11.6875H2.75C2.93234 11.6875 3.1072 11.6151 3.23614 11.4861C3.36507 11.3572 3.4375 11.1823 3.4375 11C3.4375 10.8177 3.36507 10.6428 3.23614 10.5139C3.1072 10.3849 2.93234 10.3125 2.75 10.3125ZM16.8334 4.19375L16.3474 4.67981C16.2817 4.74323 16.2293 4.81909 16.1933 4.90297C16.1573 4.98685 16.1383 5.07706 16.1375 5.16835C16.1367 5.25963 16.1541 5.35016 16.1887 5.43466C16.2233 5.51915 16.2743 5.59591 16.3389 5.66046C16.4034 5.72501 16.4802 5.77606 16.5647 5.81063C16.6491 5.8452 16.7397 5.86259 16.831 5.8618C16.9222 5.861 17.0125 5.84204 17.0963 5.80601C17.1802 5.76998 17.2561 5.7176 17.3195 5.65194L17.8062 5.16656C17.8701 5.10269 17.9208 5.02686 17.9554 4.9434C17.9899 4.85994 18.0077 4.77049 18.0077 4.68016C18.0077 4.58982 17.9899 4.50037 17.9554 4.41692C17.9208 4.33346 17.8701 4.25763 17.8062 4.19375C17.7424 4.12987 17.6665 4.07921 17.5831 4.04464C17.4996 4.01007 17.4102 3.99227 17.3198 3.99227C17.2295 3.99227 17.1401 4.01007 17.0566 4.04464C16.9731 4.07921 16.8973 4.12987 16.8334 4.19375ZM4.6805 16.3474L4.19375 16.8334C4.12987 16.8973 4.07921 16.9731 4.04464 17.0566C4.01007 17.1401 3.99227 17.2295 3.99227 17.3198C3.99227 17.4102 4.01007 17.4996 4.04464 17.5831C4.07921 17.6665 4.12987 17.7424 4.19375 17.8062C4.32275 17.9353 4.49772 18.0077 4.68016 18.0077C4.77049 18.0077 4.85994 17.9899 4.9434 17.9554C5.02686 17.9208 5.10269 17.8701 5.16656 17.8062L5.65263 17.3202C5.7165 17.2564 5.76718 17.1806 5.80177 17.0972C5.83635 17.0137 5.85417 16.9243 5.8542 16.834C5.85423 16.7437 5.83648 16.6543 5.80195 16.5709C5.76742 16.4874 5.7168 16.4116 5.65297 16.3477C5.58914 16.2838 5.51335 16.2332 5.42993 16.1986C5.34652 16.164 5.25711 16.1462 5.16681 16.1461C4.98443 16.1461 4.8095 16.2185 4.6805 16.3474ZM17.3195 16.3474C17.1898 16.2221 17.0162 16.1528 16.8359 16.1544C16.6557 16.156 16.4832 16.2283 16.3558 16.3558C16.2283 16.4832 16.156 16.6557 16.1544 16.8359C16.1528 17.0162 16.2221 17.1898 16.3474 17.3195L16.8334 17.8062C16.9624 17.9353 17.1374 18.0077 17.3198 18.0077C17.5023 18.0077 17.6772 17.9353 17.8062 17.8062C17.9353 17.6772 18.0077 17.5023 18.0077 17.3198C18.0077 17.1374 17.9353 16.9624 17.8062 16.8334L17.3195 16.3474ZM4.6805 5.65263C4.81016 5.77786 4.98383 5.84716 5.16409 5.84559C5.34435 5.84402 5.51678 5.77172 5.64425 5.64425C5.77172 5.51678 5.84402 5.34435 5.84559 5.16409C5.84716 4.98383 5.77786 4.81016 5.65263 4.6805L5.16656 4.19375C5.03756 4.06475 4.86259 3.99227 4.68016 3.99227C4.49772 3.99227 4.32275 4.06475 4.19375 4.19375C4.06475 4.32275 3.99227 4.49772 3.99227 4.68016C3.99227 4.86259 4.06475 5.03756 4.19375 5.16656L4.6805 5.65263ZM16.9813 12.0196C16.8926 11.932 16.7817 11.8702 16.6606 11.8408C16.5395 11.8114 16.4127 11.8154 16.2938 11.8525C15.8324 11.995 15.3521 12.0664 14.8693 12.0642C13.561 12.063 12.3066 11.5427 11.3814 10.6177C10.4562 9.69265 9.93583 8.43836 9.93437 7.13006C9.93268 6.64739 10.0045 6.16727 10.1475 5.70625C10.1848 5.58715 10.189 5.46013 10.1596 5.33882C10.1302 5.21752 10.0684 5.1065 9.98069 5.01768C9.893 4.92886 9.78278 4.86559 9.66186 4.83465C9.54095 4.80371 9.41389 4.80627 9.29431 4.84206C8.25067 5.15766 7.30664 5.73836 6.5543 6.52752C5.80197 7.31668 5.267 8.28736 5.0016 9.34488C4.73619 10.4024 4.7494 11.5107 5.03994 12.5615C5.33048 13.6124 5.88843 14.5701 6.65936 15.3411C7.4303 16.1121 8.3879 16.6701 9.43877 16.9608C10.4896 17.2514 11.5979 17.2647 12.6554 16.9994C13.713 16.7341 14.6837 16.1992 15.4729 15.4469C16.2622 14.6947 16.8429 13.7507 17.1586 12.7071C17.1944 12.5872 17.1968 12.4598 17.1656 12.3386C17.1343 12.2175 17.0706 12.1072 16.9813 12.0196ZM11.1217 15.8125C10.0434 15.8124 8.99491 15.459 8.13654 14.8064C7.27817 14.1538 6.65724 13.238 6.36873 12.1991C6.08022 11.1601 6.14003 10.0553 6.539 9.05352C6.93797 8.05179 7.65414 7.20835 8.57794 6.65225C8.56648 6.81037 8.56075 6.97079 8.56075 7.1335C8.56275 8.80631 9.22821 10.41 10.4111 11.5928C11.594 12.7756 13.1978 13.4409 14.8706 13.4427C15.0308 13.4427 15.191 13.4365 15.3519 13.4248C14.9102 14.1517 14.2893 14.7529 13.5486 15.171C12.8079 15.5891 11.9722 15.81 11.1217 15.8125Z" fill="#BDBDBD"/>
</svg>
