<svg width="20" height="20" viewBox="0 0 20 20" fill="none" xmlns="http://www.w3.org/2000/svg">
<path d="M9.99995 10.8513C9.84121 10.8513 9.68403 10.8825 9.53738 10.9433C9.39073 11.004 9.25748 11.0931 9.14523 11.2053C9.03299 11.3176 8.94395 11.4508 8.88321 11.5975C8.82246 11.7441 8.7912 11.9013 8.7912 12.06C8.7912 12.5231 9.05495 12.9213 9.43745 13.1238V14.2919C9.43745 14.4411 9.49671 14.5842 9.6022 14.6896C9.70769 14.7951 9.85076 14.8544 9.99995 14.8544C10.1491 14.8544 10.2922 14.7951 10.3977 14.6896C10.5032 14.5842 10.5624 14.4411 10.5624 14.2919V13.1238C10.802 12.999 10.9927 12.7973 11.1038 12.5511C11.2149 12.3049 11.24 12.0285 11.1751 11.7663C11.1102 11.504 10.9591 11.2713 10.7459 11.1053C10.5328 10.9394 10.2701 10.8499 9.99995 10.8513Z" fill="#F8AC50"/>
<path d="M14.2525 7.34689V4.94064C14.254 4.38179 14.1446 3.8282 13.9308 3.31187C13.717 2.79554 13.403 2.32672 13.0069 1.93251C12.6125 1.53665 12.1436 1.22281 11.6273 1.00912C11.111 0.795435 10.5575 0.686129 9.99873 0.687513C8.87114 0.688836 7.7901 1.13736 6.99278 1.93469C6.19545 2.73202 5.74693 3.81305 5.7456 4.94064V7.34814C4.96882 7.97908 4.34253 8.77532 3.91233 9.67886C3.48212 10.5824 3.25884 11.5705 3.25873 12.5713C3.25873 16.2888 6.2831 19.3125 9.99998 19.3125C13.7169 19.3125 16.7412 16.2888 16.7412 12.5713C16.7412 10.4656 15.7694 8.58376 14.2525 7.34689ZM6.8706 4.94064C6.8716 4.11131 7.20148 3.31624 7.78791 2.72982C8.37433 2.14339 9.1694 1.81351 9.99873 1.81251C10.8344 1.81251 11.6206 2.13814 12.2112 2.72814C12.5025 3.01809 12.7334 3.36292 12.8906 3.7427C13.0478 4.12247 13.1281 4.52963 13.1269 4.94064V6.60439C12.1626 6.09556 11.0888 5.82977 9.9985 5.8301C8.90824 5.83042 7.83454 6.09685 6.8706 6.60626V4.94064ZM9.99998 18.1875C6.9031 18.1875 4.38373 15.6681 4.38373 12.5713C4.38373 9.47439 6.9031 6.95501 9.99998 6.95501C13.0969 6.95501 15.6156 9.47439 15.6156 12.5713C15.6156 15.6681 13.0969 18.1875 9.99998 18.1875Z" fill="#F8AC50"/>
</svg>
