<svg width="16" height="17" viewBox="0 0 16 17" fill="none" xmlns="http://www.w3.org/2000/svg">
<path d="M12.1406 11.0414C12.4443 11.0414 12.6906 10.7952 12.6906 10.4914C12.6906 10.1876 12.4443 9.94141 12.1406 9.94141C11.8368 9.94141 11.5906 10.1876 11.5906 10.4914C11.5906 10.7952 11.8368 11.0414 12.1406 11.0414Z" fill="#F8AC50"/>
<path d="M14.5626 8.64746H11.9866C10.9701 8.64746 10.1426 9.47446 10.1426 10.4915C10.1426 11.5085 10.9696 12.3355 11.9866 12.3355H14.5626C15.0106 12.3355 15.3751 11.971 15.3751 11.523V9.46046C15.3751 9.01196 15.0106 8.64746 14.5626 8.64746ZM14.6251 11.5225C14.6251 11.539 14.6185 11.5549 14.6068 11.5667C14.5951 11.5784 14.5792 11.585 14.5626 11.585H11.9866C11.3836 11.585 10.8926 11.0945 10.8926 10.491C10.8926 9.88746 11.3831 9.39696 11.9866 9.39696H14.5626C14.5971 9.39696 14.6251 9.42496 14.6251 9.45946V11.5225Z" fill="#F8AC50"/>
<path d="M13.895 12.5861C13.7956 12.5861 13.7002 12.6256 13.6299 12.696C13.5595 12.7663 13.52 12.8617 13.52 12.9611V13.6661C13.52 14.2866 13.015 14.7911 12.395 14.7911H2.50002C2.20177 14.7907 1.91585 14.6721 1.70496 14.4612C1.49407 14.2503 1.37541 13.9644 1.37502 13.6661V6.00014C1.39252 6.01014 1.41302 6.01364 1.43102 6.02314C1.50302 6.06014 1.57802 6.09064 1.65602 6.11514C1.68902 6.12564 1.72052 6.13764 1.75402 6.14564C1.86552 6.17264 1.98052 6.19114 2.10002 6.19114H12.395C13.015 6.19114 13.52 6.69564 13.52 7.31614V8.02114C13.52 8.1206 13.5595 8.21598 13.6299 8.28631C13.7002 8.35663 13.7956 8.39614 13.895 8.39614C13.9945 8.39614 14.0899 8.35663 14.1602 8.28631C14.2305 8.21598 14.27 8.1206 14.27 8.02114V7.31614C14.2692 6.99658 14.1865 6.68257 14.0298 6.40405C13.8731 6.12553 13.6477 5.8918 13.375 5.72514V5.11614C13.3744 4.61906 13.1766 4.14253 12.8251 3.79105C12.4736 3.43956 11.9971 3.2418 11.5 3.24114H11.181C11.156 3.19464 11.137 3.14564 11.108 3.10064C10.9744 2.89374 10.8011 2.71539 10.5982 2.57592C10.3952 2.43646 10.1666 2.33864 9.92552 2.28814L6.21902 1.50114C5.73309 1.39901 5.22648 1.49327 4.80981 1.76334C4.39313 2.03342 4.10022 2.45736 3.99502 2.94264L3.93202 3.24114H2.10002C1.71052 3.24114 1.34052 3.39264 1.05402 3.67114C0.917133 3.80843 0.808757 3.97144 0.735131 4.15079C0.661505 4.33013 0.624082 4.52227 0.625017 4.71614V13.6661C0.625679 14.1632 0.823435 14.6397 1.17492 14.9912C1.52641 15.3427 2.00294 15.5405 2.50002 15.5411H12.395C12.8921 15.5405 13.3686 15.3427 13.7201 14.9912C14.0716 14.6397 14.2694 14.1632 14.27 13.6661V12.9611C14.27 12.8617 14.2305 12.7663 14.1602 12.696C14.0899 12.6256 13.9945 12.5861 13.895 12.5861ZM11.5 3.99114C12.12 3.99114 12.625 4.49564 12.625 5.11614V5.44114H11.1725L11.3695 4.51164C11.4065 4.33764 11.41 4.16364 11.398 3.99114H11.5ZM6.06252 2.23414L9.76902 3.02114C9.91378 3.05143 10.0511 3.11016 10.173 3.19393C10.2948 3.2777 10.3989 3.38485 10.479 3.50914C10.643 3.76114 10.6985 4.06164 10.636 4.35614L10.406 5.44114H4.23252L4.72852 3.09964C4.79175 2.80858 4.96743 2.5543 5.21729 2.39219C5.46716 2.23008 5.77096 2.17327 6.06252 2.23414ZM1.58152 4.20464C1.71971 4.0683 1.90589 3.99164 2.10002 3.99114H3.77302L3.46602 5.44114H2.10002C1.70002 5.44114 1.37502 5.11614 1.37502 4.71614C1.37502 4.51964 1.44952 4.33664 1.58152 4.20464Z" fill="#F8AC50"/>
<path d="M6.9585 8.14648C6.9585 8.04703 6.919 7.95165 6.84867 7.88132C6.77834 7.81099 6.68296 7.77148 6.5835 7.77148H2.979C2.87955 7.77148 2.78416 7.81099 2.71384 7.88132C2.64351 7.95165 2.604 8.04703 2.604 8.14648C2.604 8.24594 2.64351 8.34132 2.71384 8.41165C2.78416 8.48198 2.87955 8.52148 2.979 8.52148H6.5835C6.68296 8.52148 6.77834 8.48198 6.84867 8.41165C6.919 8.34132 6.9585 8.24594 6.9585 8.14648ZM2.979 9.27148C2.87955 9.27148 2.78416 9.31099 2.71384 9.38132C2.64351 9.45165 2.604 9.54703 2.604 9.64648C2.604 9.74594 2.64351 9.84132 2.71384 9.91165C2.78416 9.98198 2.87955 10.0215 2.979 10.0215H5.4335C5.53296 10.0215 5.62834 9.98198 5.69867 9.91165C5.769 9.84132 5.8085 9.74594 5.8085 9.64648C5.8085 9.54703 5.769 9.45165 5.69867 9.38132C5.62834 9.31099 5.53296 9.27148 5.4335 9.27148H2.979Z" fill="#F8AC50"/>
</svg>
