<svg width="20" height="20" viewBox="0 0 20 20" fill="none" xmlns="http://www.w3.org/2000/svg">
<path fill-rule="evenodd" clip-rule="evenodd" d="M10 1.04163C8.95021 1.04163 7.94339 1.45866 7.20106 2.20099C6.45873 2.94333 6.04169 3.95014 6.04169 4.99996C6.04169 6.04977 6.45873 7.05659 7.20106 7.79892C7.94339 8.54125 8.95021 8.95829 10 8.95829C11.0498 8.95829 12.0567 8.54125 12.799 7.79892C13.5413 7.05659 13.9584 6.04977 13.9584 4.99996C13.9584 3.95014 13.5413 2.94333 12.799 2.20099C12.0567 1.45866 11.0498 1.04163 10 1.04163ZM7.29169 4.99996C7.29169 4.28166 7.57703 3.59279 8.08495 3.08488C8.59286 2.57697 9.28173 2.29163 10 2.29163C10.7183 2.29163 11.4072 2.57697 11.9151 3.08488C12.423 3.59279 12.7084 4.28166 12.7084 4.99996C12.7084 5.71825 12.423 6.40713 11.9151 6.91504C11.4072 7.42295 10.7183 7.70829 10 7.70829C9.28173 7.70829 8.59286 7.42295 8.08495 6.91504C7.57703 6.40713 7.29169 5.71825 7.29169 4.99996ZM10 10.2083C8.07253 10.2083 6.29586 10.6466 4.98003 11.3866C3.68336 12.1166 2.70836 13.2216 2.70836 14.5833V14.6683C2.70753 15.6366 2.70669 16.8516 3.77253 17.72C4.29669 18.1466 5.03086 18.4508 6.02253 18.6508C7.01586 18.8525 8.31169 18.9583 10 18.9583C11.6884 18.9583 12.9834 18.8525 13.9784 18.6508C14.97 18.4508 15.7034 18.1466 16.2284 17.72C17.2942 16.8516 17.2925 15.6366 17.2917 14.6683V14.5833C17.2917 13.2216 16.3167 12.1166 15.0209 11.3866C13.7042 10.6466 11.9284 10.2083 10 10.2083ZM3.95836 14.5833C3.95836 13.8741 4.47669 13.1041 5.59253 12.4766C6.68919 11.86 8.24586 11.4583 10.0009 11.4583C11.7542 11.4583 13.3109 11.86 14.4075 12.4766C15.5242 13.1041 16.0417 13.8741 16.0417 14.5833C16.0417 15.6733 16.0084 16.2866 15.4384 16.75C15.13 17.0016 14.6134 17.2475 13.73 17.4258C12.8492 17.6041 11.645 17.7083 10 17.7083C8.35503 17.7083 7.15003 17.6041 6.27003 17.4258C5.38669 17.2475 4.87003 17.0016 4.56169 16.7508C3.99169 16.2866 3.95836 15.6733 3.95836 14.5833Z" fill="#F8AC50"/>
</svg>
