<svg width="32" height="32" viewBox="0 0 32 32" fill="none" xmlns="http://www.w3.org/2000/svg">
<path d="M29.1396 16C29.1394 19.2819 27.8355 22.4293 25.5147 24.7498C23.194 27.0704 20.0465 28.374 16.7646 28.374C13.4828 28.374 10.3353 27.0704 8.01456 24.7498C5.69382 22.4293 4.38991 19.2819 4.38965 16C4.38952 14.3748 4.70951 12.7655 5.33135 11.264C5.9532 9.76249 6.86471 8.39816 8.01385 7.24893C9.16299 6.0997 10.5272 5.18807 12.0287 4.56611C13.5302 3.94415 15.1395 3.62402 16.7646 3.62402C18.3898 3.62402 19.9991 3.94415 21.5006 4.56611C23.0021 5.18807 24.3663 6.0997 25.5154 7.24893C26.6646 8.39816 27.5761 9.76249 28.1979 11.264C28.8198 12.7655 29.1398 14.3748 29.1396 16Z" fill="#F8AC50"/>
<path fill-rule="evenodd" clip-rule="evenodd" d="M9.38032 10.3561C8.50232 10.4161 7.63532 10.6761 6.67032 11.0691C6.38332 11.1881 6.24432 11.3741 6.24432 11.7021V18.1591C6.24432 18.3651 6.34632 18.6191 6.56032 18.7521C6.65862 18.8092 6.76908 18.8421 6.88261 18.8482C6.99613 18.8543 7.10948 18.8333 7.21332 18.7871C7.22074 18.7839 7.22807 18.7806 7.23532 18.7771C8.89232 17.9761 10.0483 17.9321 11.8053 18.6311C11.9256 18.6797 12.0601 18.6797 12.1803 18.6311C13.9603 17.9071 14.9773 18.0231 16.7643 18.7871C16.9493 18.8671 17.2053 18.8871 17.4203 18.7541C17.518 18.6885 17.5979 18.6 17.6532 18.4962C17.7085 18.3924 17.7374 18.2766 17.7373 18.1591V11.7861C17.7373 11.4791 17.6363 11.3231 17.3743 11.1821C15.5383 10.2001 13.9483 10.1911 11.9793 10.8051C11.0493 10.4661 10.2043 10.3031 9.38732 10.3601L9.38032 10.3561ZM9.43032 11.3261C10.1603 11.2731 10.8883 11.4041 11.8033 11.7641C11.9114 11.8065 12.0309 11.8101 12.1413 11.7741C13.9813 11.1761 15.1313 11.1981 16.7313 12.0101V17.7591C15.1013 17.1341 13.6983 17.0211 11.9913 17.6691C10.3043 17.0391 8.82732 17.1021 7.24132 17.7611V11.9411C8.06132 11.6161 8.75932 11.3761 9.43032 11.3261ZM6.81732 17.8701H6.82732C6.81632 17.8801 6.80632 17.87 6.79632 17.8801L6.81732 17.8701Z" fill="#0D0D0D"/>
<path fill-rule="evenodd" clip-rule="evenodd" d="M11.9783 10.897C11.9127 10.8981 11.8479 10.912 11.7876 10.9381C11.7273 10.9642 11.6728 11.0019 11.6271 11.0491C11.5814 11.0963 11.5455 11.152 11.5213 11.2131C11.4972 11.2741 11.4853 11.3394 11.4863 11.405V17.788C11.4863 17.9206 11.539 18.0478 11.6328 18.1416C11.7265 18.2354 11.8537 18.288 11.9863 18.288C12.1189 18.288 12.2461 18.2354 12.3399 18.1416C12.4337 18.0478 12.4863 17.9206 12.4863 17.788V11.405C12.4874 11.338 12.475 11.2715 12.4499 11.2094C12.4247 11.1472 12.3873 11.0908 12.34 11.0434C12.2926 10.996 12.2361 10.9587 12.174 10.9335C12.1119 10.9084 12.0453 10.896 11.9783 10.897Z" fill="#0D0D0D"/>
<path d="M3.86133 1.5C3.31633 1.5 2.86133 1.953 2.86133 2.499V29.5C2.86133 30.045 3.31633 30.5 3.86133 30.5H19.8613C20.4073 30.5 20.8613 30.045 20.8613 29.5V2.499C20.8613 1.953 20.4063 1.501 19.8613 1.501L3.86133 1.5ZM3.86133 2.5H19.8613V29.5H3.86133V2.5Z" fill="#0D0D0D"/>
<path fill-rule="evenodd" clip-rule="evenodd" d="M11.3613 3.99902C11.2287 3.99902 11.1015 4.0517 11.0078 4.14547C10.914 4.23924 10.8613 4.36642 10.8613 4.49902C10.8613 4.63163 10.914 4.75881 11.0078 4.85258C11.1015 4.94634 11.2287 4.99902 11.3613 4.99902H14.3533C14.4859 4.99902 14.6131 4.94634 14.7069 4.85258C14.8006 4.75881 14.8533 4.63163 14.8533 4.49902C14.8533 4.36642 14.8006 4.23924 14.7069 4.14547C14.6131 4.0517 14.4859 3.99902 14.3533 3.99902H11.3613Z" fill="#0D0D0D"/>
<path d="M11.8613 25.499C11.0393 25.499 10.3613 26.176 10.3613 26.999C10.3613 27.822 11.0393 28.499 11.8613 28.499C12.6833 28.499 13.3613 27.821 13.3613 26.999C13.3613 26.177 12.6843 25.499 11.8613 25.499ZM11.8613 26.499C12.1433 26.499 12.3613 26.716 12.3613 26.999C12.3613 27.282 12.1433 27.499 11.8613 27.499C11.5793 27.499 11.3613 27.281 11.3613 26.999C11.3613 26.717 11.5793 26.499 11.8613 26.499Z" fill="#0D0D0D"/>
<path fill-rule="evenodd" clip-rule="evenodd" d="M5.36731 23.499C5.2347 23.499 5.10752 23.5517 5.01376 23.6455C4.91999 23.7392 4.86731 23.8664 4.86731 23.999C4.86731 24.1316 4.91999 24.2588 5.01376 24.3526C5.10752 24.4463 5.2347 24.499 5.36731 24.499H18.3533C18.4859 24.499 18.6131 24.4463 18.7069 24.3526C18.8006 24.2588 18.8533 24.1316 18.8533 23.999C18.8533 23.8664 18.8006 23.7392 18.7069 23.6455C18.6131 23.5517 18.4859 23.499 18.3533 23.499H5.36731Z" fill="#0D0D0D"/>
<path d="M9.86035 4.5C9.86035 4.63261 9.80767 4.75979 9.71391 4.85355C9.62014 4.94732 9.49296 5 9.36035 5C9.22774 5 9.10057 4.94732 9.0068 4.85355C8.91303 4.75979 8.86035 4.63261 8.86035 4.5C8.86035 4.36739 8.91303 4.24021 9.0068 4.14645C9.10057 4.05268 9.22774 4 9.36035 4C9.49296 4 9.62014 4.05268 9.71391 4.14645C9.80767 4.24021 9.86035 4.36739 9.86035 4.5Z" fill="#0D0D0D"/>
</svg>
