<svg width="20" height="20" viewBox="0 0 20 20" fill="none" xmlns="http://www.w3.org/2000/svg">
<path fill-rule="evenodd" clip-rule="evenodd" d="M15.9893 4.01068C14.6219 2.64323 12.7672 1.875 10.8333 1.875C8.89946 1.875 7.0448 2.64323 5.67735 4.01068C4.30989 5.37813 3.54167 7.2328 3.54167 9.16667C3.54167 10.8911 4.15251 12.5526 5.25437 13.8618L2.05806 17.0581C1.81398 17.3021 1.81398 17.6979 2.05806 17.9419C2.30214 18.186 2.69786 18.186 2.94194 17.9419L6.13825 14.7456C7.44744 15.8475 9.1089 16.4583 10.8333 16.4583C12.7672 16.4583 14.6219 15.6901 15.9893 14.3227C17.3568 12.9552 18.125 11.1005 18.125 9.16667C18.125 7.2328 17.3568 5.37813 15.9893 4.01068ZM10.8333 3.125C12.4357 3.125 13.9724 3.76153 15.1054 4.89456C16.2385 6.0276 16.875 7.56432 16.875 9.16667C16.875 10.769 16.2385 12.3057 15.1054 13.4388C13.9724 14.5718 12.4357 15.2083 10.8333 15.2083C9.23098 15.2083 7.69426 14.5718 6.56123 13.4388C5.4282 12.3057 4.79167 10.769 4.79167 9.16667C4.79167 7.56432 5.4282 6.0276 6.56123 4.89456C7.69426 3.76153 9.23098 3.125 10.8333 3.125Z" fill="#F8AC50"/>
</svg>
