<svg width="21" height="21" viewBox="0 0 21 21" fill="none" xmlns="http://www.w3.org/2000/svg">
<g clip-path="url(#clip0_300_2935)">
<path d="M7.30293 11.196C7.03377 11.196 6.76877 11.066 6.60877 10.8244C6.35293 10.4419 6.4571 9.92354 6.8396 9.66854L13.9729 4.91854C14.3571 4.66271 14.8738 4.76687 15.1288 5.1502C15.3846 5.5327 15.2804 6.05104 14.8979 6.30604L7.7646 11.056C7.6221 11.151 7.4621 11.196 7.30293 11.196Z" fill="#F8AC50"/>
<path d="M15.8007 18.3635C15.6891 18.3635 15.5757 18.341 15.4674 18.2935L7.28408 14.7102C6.86241 14.5252 6.67074 14.0343 6.85491 13.6127C7.03908 13.1918 7.52908 12.9985 7.95241 13.1835L16.1357 16.7668C16.5574 16.9518 16.7491 17.4427 16.5649 17.8643C16.4282 18.176 16.1224 18.3635 15.8007 18.3635Z" fill="#F8AC50"/>
<path d="M4.1853 16.8213C1.7728 16.8213 -0.189697 14.8588 -0.189697 12.4463C-0.189697 10.0338 1.7728 8.07129 4.1853 8.07129C6.5978 8.07129 8.5603 10.0338 8.5603 12.4463C8.5603 14.8588 6.5978 16.8213 4.1853 16.8213Z" fill="#F8AC50"/>
<path d="M17.5183 20.7793C16.14 20.7793 15.0183 19.6576 15.0183 18.2793C15.0183 16.901 16.14 15.7793 17.5183 15.7793C18.8966 15.7793 20.0183 16.901 20.0183 18.2793C20.0183 19.6576 18.8966 20.7793 17.5183 20.7793Z" fill="#F8AC50"/>
<path d="M16.6856 7.44596C14.8473 7.44596 13.3523 5.95096 13.3523 4.11263C13.3523 2.2743 14.8473 0.779297 16.6856 0.779297C18.524 0.779297 20.019 2.2743 20.019 4.11263C20.019 5.95096 18.524 7.44596 16.6856 7.44596Z" fill="#F8AC50"/>
<path d="M4.39331 16.8213C1.98081 16.8213 0.0183105 14.8588 0.0183105 12.4463C0.0183105 10.0338 1.98081 8.07129 4.39331 8.07129C6.80581 8.07129 8.76831 10.0338 8.76831 12.4463C8.76831 14.8588 6.80581 16.8213 4.39331 16.8213ZM4.39331 9.32129C2.67081 9.32129 1.26831 10.723 1.26831 12.4463C1.26831 14.1696 2.67081 15.5713 4.39331 15.5713C6.11581 15.5713 7.51831 14.1696 7.51831 12.4463C7.51831 10.723 6.11581 9.32129 4.39331 9.32129Z" fill="#F8AC50"/>
<path d="M17.5183 20.7793C16.14 20.7793 15.0183 19.6576 15.0183 18.2793C15.0183 16.901 16.14 15.7793 17.5183 15.7793C18.8966 15.7793 20.0183 16.901 20.0183 18.2793C20.0183 19.6576 18.8966 20.7793 17.5183 20.7793ZM17.5183 17.0293C16.8291 17.0293 16.2683 17.5901 16.2683 18.2793C16.2683 18.9685 16.8291 19.5293 17.5183 19.5293C18.2075 19.5293 18.7683 18.9685 18.7683 18.2793C18.7683 17.5901 18.2075 17.0293 17.5183 17.0293Z" fill="#F8AC50"/>
<path d="M16.6847 7.44596C14.8463 7.44596 13.3513 5.95096 13.3513 4.11263C13.3513 2.2743 14.8463 0.779297 16.6847 0.779297C18.523 0.779297 20.018 2.2743 20.018 4.11263C20.018 5.95096 18.523 7.44596 16.6847 7.44596ZM16.6847 2.0293C15.5355 2.0293 14.6013 2.9643 14.6013 4.11263C14.6013 5.26096 15.5355 6.19596 16.6847 6.19596C17.8338 6.19596 18.768 5.26096 18.768 4.11263C18.768 2.9643 17.8338 2.0293 16.6847 2.0293Z" fill="#F8AC50"/>
<path d="M7.09839 9.75L14.0886 5.08708L14.7823 6.12708L7.79214 10.79L7.09839 9.75Z" fill="#F8AC50"/>
<path d="M7.53979 14.5908L8.04104 13.4458L16.0499 16.9519L15.5487 18.0969L7.53979 14.5908Z" fill="#F8AC50"/>
</g>
<defs>
<clipPath id="clip0_300_2935">
<rect width="20" height="20" fill="white" transform="translate(0.0183105 0.779297)"/>
</clipPath>
</defs>
</svg>
