<svg width="22" height="22" viewBox="0 0 22 22" fill="none" xmlns="http://www.w3.org/2000/svg">
<path fill-rule="evenodd" clip-rule="evenodd" d="M11 8.06664C9.37997 8.06664 8.06667 9.37994 8.06667 11C8.06667 12.62 9.37997 13.9333 11 13.9333C12.62 13.9333 13.9333 12.62 13.9333 11C13.9333 9.37994 12.62 8.06664 11 8.06664ZM6.60001 11C6.60001 8.56992 8.56995 6.59998 11 6.59998C13.4301 6.59998 15.4 8.56992 15.4 11C15.4 13.43 13.4301 15.4 11 15.4C8.56995 15.4 6.60001 13.43 6.60001 11Z" fill="white"/>
<path fill-rule="evenodd" clip-rule="evenodd" d="M11 1.46667C11.405 1.46667 11.7333 1.795 11.7333 2.20001V3.66668C11.7333 4.07168 11.405 4.40001 11 4.40001C10.595 4.40001 10.2667 4.07168 10.2667 3.66668V2.20001C10.2667 1.795 10.595 1.46667 11 1.46667ZM4.25546 4.25546C4.54185 3.96908 5.00617 3.96908 5.29255 4.25546L6.33389 5.2968C6.62027 5.58318 6.62027 6.0475 6.33389 6.33389C6.0475 6.62027 5.58318 6.62027 5.2968 6.33389L4.25546 5.29255C3.96908 5.00617 3.96908 4.54185 4.25546 4.25546ZM17.7446 4.25546C18.0309 4.54185 18.0309 5.00617 17.7446 5.29255L16.7032 6.33389C16.4168 6.62027 15.9525 6.62027 15.6661 6.33389C15.3797 6.0475 15.3797 5.58318 15.6661 5.2968L16.7075 4.25546C16.9938 3.96908 17.4582 3.96908 17.7446 4.25546ZM1.46667 11C1.46667 10.595 1.795 10.2667 2.20001 10.2667H3.66668C4.07168 10.2667 4.40001 10.595 4.40001 11C4.40001 11.405 4.07168 11.7333 3.66668 11.7333H2.20001C1.795 11.7333 1.46667 11.405 1.46667 11ZM17.6 11C17.6 10.595 17.9283 10.2667 18.3333 10.2667H19.8C20.205 10.2667 20.5333 10.595 20.5333 11C20.5333 11.405 20.205 11.7333 19.8 11.7333H18.3333C17.9283 11.7333 17.6 11.405 17.6 11ZM6.33389 15.6661C6.62027 15.9525 6.62027 16.4168 6.33389 16.7032L5.29255 17.7446C5.00617 18.0309 4.54185 18.0309 4.25546 17.7446C3.96908 17.4582 3.96908 16.9938 4.25546 16.7075L5.2968 15.6661C5.58318 15.3797 6.0475 15.3797 6.33389 15.6661ZM15.6661 15.6661C15.9525 15.3797 16.4168 15.3797 16.7032 15.6661L17.7446 16.7075C18.0309 16.9938 18.0309 17.4582 17.7446 17.7446C17.4582 18.0309 16.9938 18.0309 16.7075 17.7446L15.6661 16.7032C15.3797 16.4168 15.3797 15.9525 15.6661 15.6661ZM11 17.6C11.405 17.6 11.7333 17.9283 11.7333 18.3333V19.8C11.7333 20.205 11.405 20.5333 11 20.5333C10.595 20.5333 10.2667 20.205 10.2667 19.8V18.3333C10.2667 17.9283 10.595 17.6 11 17.6Z" fill="white"/>
</svg>
